<svg width="866" height="298" viewBox="0 0 866 298" fill="none" xmlns="http://www.w3.org/2000/svg">
<g filter="url(#filter0_d_376_612)">
<rect x="14" y="13" width="828" height="260" rx="24" fill="url(#paint0_linear_376_612)"/>
</g>
<mask id="mask0_376_612" style="mask-type:alpha" maskUnits="userSpaceOnUse" x="14" y="13" width="828" height="260">
<rect x="14" y="13" width="828" height="260" rx="24" fill="url(#paint1_linear_376_612)"/>
</mask>
<g mask="url(#mask0_376_612)">
<path d="M-9 67C15.6667 98.8333 77.1 149.5 125.5 97.5C186 32.5 174 -82.5 271.5 -37C369 8.50002 384.5 85.5 432.5 44C470.9 10.8 491.833 -38.5 497.5 -59" stroke="#3162FF" stroke-opacity="0.1" stroke-width="2"/>
<path d="M35 291.5C63.1667 225.667 155.2 124 272 172C418 232 405.5 429.5 493.5 311.5C581.5 193.5 651.5 4.5 850.5 65" stroke="#3162FF" stroke-opacity="0.1" stroke-width="2"/>
</g>
<defs>
<filter id="filter0_d_376_612" x="0" y="0" width="866" height="298" filterUnits="userSpaceOnUse" color-interpolation-filters="sRGB">
<feFlood flood-opacity="0" result="BackgroundImageFix"/>
<feColorMatrix in="SourceAlpha" type="matrix" values="0 0 0 0 0 0 0 0 0 0 0 0 0 0 0 0 0 0 127 0" result="hardAlpha"/>
<feOffset dx="5" dy="6"/>
<feGaussianBlur stdDeviation="9.5"/>
<feComposite in2="hardAlpha" operator="out"/>
<feColorMatrix type="matrix" values="0 0 0 0 0.244834 0 0 0 0 0.280997 0 0 0 0 0.462679 0 0 0 0.04 0"/>
<feBlend mode="normal" in2="BackgroundImageFix" result="effect1_dropShadow_376_612"/>
<feBlend mode="normal" in="SourceGraphic" in2="effect1_dropShadow_376_612" result="shape"/>
</filter>
<linearGradient id="paint0_linear_376_612" x1="14" y1="13" x2="842" y2="273" gradientUnits="userSpaceOnUse">
<stop stop-color="#D2ECFF"/>
<stop offset="0.0937335" stop-color="#D6ECFF"/>
<stop offset="1" stop-color="#F5E8FF"/>
</linearGradient>
<linearGradient id="paint1_linear_376_612" x1="14" y1="13" x2="842" y2="273" gradientUnits="userSpaceOnUse">
<stop stop-color="#D2ECFF"/>
<stop offset="0.0937335" stop-color="#D6ECFF"/>
<stop offset="1" stop-color="#F5E8FF"/>
</linearGradient>
</defs>
</svg>
