<svg width="312" height="172" viewBox="0 0 312 172" fill="none" xmlns="http://www.w3.org/2000/svg">
<path d="M37.9813 50.3345C21.0941 49.9358 6.95742 67.7747 2 76.744V148H310V12.4642C308.561 16.4505 301.94 24.4232 286.972 24.4232C268.262 24.4232 267.302 2 237.558 2C207.813 2 208.778 54.8191 187.184 54.8191C159.358 54.8191 159.301 21.377 133.395 24.4232C107.488 27.4694 114.262 93.686 87.3956 93.686C60.5296 93.686 59.0903 50.8328 37.9813 50.3345Z" fill="url(#paint0_linear_1_334)"/>
<path d="M2 77C6.95742 68 21.0941 50.1 37.9813 50.5C59.0903 51 60.5296 94 87.3956 94C114.262 94 107.488 27.5566 133.395 24.5C159.301 21.4434 159.358 55 187.184 55C208.778 55 207.813 2 237.558 2C267.302 2 268.262 24.5 286.972 24.5C301.94 24.5 308.561 16.5 310 12.5" stroke="#3162FF" stroke-width="3" stroke-linecap="round"/>
<g filter="url(#filter0_d_1_334)">
<circle cx="136" cy="25" r="6" fill="white"/>
<circle cx="136" cy="25" r="6" stroke="#3162FF" stroke-width="3"/>
</g>
<path d="M11.408 159.696V168H10.316V161.808L7.556 168H6.788L4.016 161.796V168H2.924V159.696H4.1L7.172 166.56L10.244 159.696H11.408ZM16.1279 168.108C15.5119 168.108 14.9519 167.968 14.4479 167.688C13.9519 167.408 13.5599 167.012 13.2719 166.5C12.9919 165.98 12.8519 165.38 12.8519 164.7C12.8519 164.028 12.9959 163.436 13.2839 162.924C13.5799 162.404 13.9799 162.008 14.4839 161.736C14.9879 161.456 15.5519 161.316 16.1759 161.316C16.7999 161.316 17.3639 161.456 17.8679 161.736C18.3719 162.008 18.7679 162.4 19.0559 162.912C19.3519 163.424 19.4999 164.02 19.4999 164.7C19.4999 165.38 19.3479 165.98 19.0439 166.5C18.7479 167.012 18.3439 167.408 17.8319 167.688C17.3199 167.968 16.7519 168.108 16.1279 168.108ZM16.1279 167.148C16.5199 167.148 16.8879 167.056 17.2319 166.872C17.5759 166.688 17.8519 166.412 18.0599 166.044C18.2759 165.676 18.3839 165.228 18.3839 164.7C18.3839 164.172 18.2799 163.724 18.0719 163.356C17.8639 162.988 17.5919 162.716 17.2559 162.54C16.9199 162.356 16.5559 162.264 16.1639 162.264C15.7639 162.264 15.3959 162.356 15.0599 162.54C14.7319 162.716 14.4679 162.988 14.2679 163.356C14.0679 163.724 13.9679 164.172 13.9679 164.7C13.9679 165.236 14.0639 165.688 14.2559 166.056C14.4559 166.424 14.7199 166.7 15.0479 166.884C15.3759 167.06 15.7359 167.148 16.1279 167.148ZM24.1397 161.304C24.9397 161.304 25.5877 161.548 26.0837 162.036C26.5797 162.516 26.8277 163.212 26.8277 164.124V168H25.7477V164.28C25.7477 163.624 25.5837 163.124 25.2557 162.78C24.9277 162.428 24.4797 162.252 23.9117 162.252C23.3357 162.252 22.8757 162.432 22.5317 162.792C22.1957 163.152 22.0277 163.676 22.0277 164.364V168H20.9357V161.424H22.0277V162.36C22.2437 162.024 22.5357 161.764 22.9037 161.58C23.2797 161.396 23.6917 161.304 24.1397 161.304Z" fill="#8E8C99"/>
<path d="M59.072 159.636V160.524H56.792V168H55.7V160.524H53.408V159.636H59.072ZM66.2482 161.424V168H65.1562V167.028C64.9482 167.364 64.6562 167.628 64.2802 167.82C63.9122 168.004 63.5042 168.096 63.0562 168.096C62.5442 168.096 62.0842 167.992 61.6762 167.784C61.2682 167.568 60.9442 167.248 60.7042 166.824C60.4722 166.4 60.3562 165.884 60.3562 165.276V161.424H61.4362V165.132C61.4362 165.78 61.6002 166.28 61.9282 166.632C62.2562 166.976 62.7042 167.148 63.2722 167.148C63.8562 167.148 64.3162 166.968 64.6522 166.608C64.9882 166.248 65.1562 165.724 65.1562 165.036V161.424H66.2482ZM74.092 164.46C74.092 164.668 74.08 164.888 74.056 165.12H68.8C68.84 165.768 69.06 166.276 69.46 166.644C69.868 167.004 70.36 167.184 70.936 167.184C71.408 167.184 71.8 167.076 72.112 166.86C72.432 166.636 72.656 166.34 72.784 165.972H73.96C73.784 166.604 73.432 167.12 72.904 167.52C72.376 167.912 71.72 168.108 70.936 168.108C70.312 168.108 69.752 167.968 69.256 167.688C68.768 167.408 68.384 167.012 68.104 166.5C67.824 165.98 67.684 165.38 67.684 164.7C67.684 164.02 67.82 163.424 68.092 162.912C68.364 162.4 68.744 162.008 69.232 161.736C69.728 161.456 70.296 161.316 70.936 161.316C71.56 161.316 72.112 161.452 72.592 161.724C73.072 161.996 73.44 162.372 73.696 162.852C73.96 163.324 74.092 163.86 74.092 164.46ZM72.964 164.232C72.964 163.816 72.872 163.46 72.688 163.164C72.504 162.86 72.252 162.632 71.932 162.48C71.62 162.32 71.272 162.24 70.888 162.24C70.336 162.24 69.864 162.416 69.472 162.768C69.088 163.12 68.868 163.608 68.812 164.232H72.964Z" fill="#8E8C99"/>
<path d="M111.436 159.636L109.012 168H107.788L105.844 161.268L103.828 168L102.616 168.012L100.276 159.636H101.44L103.264 166.728L105.28 159.636H106.504L108.424 166.704L110.26 159.636H111.436ZM118.631 164.46C118.631 164.668 118.619 164.888 118.595 165.12H113.339C113.379 165.768 113.599 166.276 113.999 166.644C114.407 167.004 114.899 167.184 115.475 167.184C115.947 167.184 116.339 167.076 116.651 166.86C116.971 166.636 117.195 166.34 117.323 165.972H118.499C118.323 166.604 117.971 167.12 117.443 167.52C116.915 167.912 116.259 168.108 115.475 168.108C114.851 168.108 114.291 167.968 113.795 167.688C113.307 167.408 112.923 167.012 112.643 166.5C112.363 165.98 112.223 165.38 112.223 164.7C112.223 164.02 112.359 163.424 112.631 162.912C112.903 162.4 113.283 162.008 113.771 161.736C114.267 161.456 114.835 161.316 115.475 161.316C116.099 161.316 116.651 161.452 117.131 161.724C117.611 161.996 117.979 162.372 118.235 162.852C118.499 163.324 118.631 163.86 118.631 164.46ZM117.503 164.232C117.503 163.816 117.411 163.46 117.227 163.164C117.043 162.86 116.791 162.632 116.471 162.48C116.159 162.32 115.811 162.24 115.427 162.24C114.875 162.24 114.403 162.416 114.011 162.768C113.627 163.12 113.407 163.608 113.351 164.232H117.503ZM119.664 164.688C119.664 164.016 119.8 163.428 120.072 162.924C120.344 162.412 120.716 162.016 121.188 161.736C121.668 161.456 122.204 161.316 122.796 161.316C123.308 161.316 123.784 161.436 124.224 161.676C124.664 161.908 125 162.216 125.232 162.6V159.12H126.336V168H125.232V166.764C125.016 167.156 124.696 167.48 124.272 167.736C123.848 167.984 123.352 168.108 122.784 168.108C122.2 168.108 121.668 167.964 121.188 167.676C120.716 167.388 120.344 166.984 120.072 166.464C119.8 165.944 119.664 165.352 119.664 164.688ZM125.232 164.7C125.232 164.204 125.132 163.772 124.932 163.404C124.732 163.036 124.46 162.756 124.116 162.564C123.78 162.364 123.408 162.264 123 162.264C122.592 162.264 122.22 162.36 121.884 162.552C121.548 162.744 121.28 163.024 121.08 163.392C120.88 163.76 120.78 164.192 120.78 164.688C120.78 165.192 120.88 165.632 121.08 166.008C121.28 166.376 121.548 166.66 121.884 166.86C122.22 167.052 122.592 167.148 123 167.148C123.408 167.148 123.78 167.052 124.116 166.86C124.46 166.66 124.732 166.376 124.932 166.008C125.132 165.632 125.232 165.196 125.232 164.7Z" fill="#8E8C99"/>
<path d="M159.072 159.636V160.524H156.792V168H155.7V160.524H153.408V159.636H159.072ZM163.68 161.304C164.176 161.304 164.624 161.412 165.024 161.628C165.424 161.836 165.736 162.152 165.96 162.576C166.192 163 166.308 163.516 166.308 164.124V168H165.228V164.28C165.228 163.624 165.064 163.124 164.736 162.78C164.408 162.428 163.96 162.252 163.392 162.252C162.816 162.252 162.356 162.432 162.012 162.792C161.676 163.152 161.508 163.676 161.508 164.364V168H160.416V159.12H161.508V162.36C161.724 162.024 162.02 161.764 162.396 161.58C162.78 161.396 163.208 161.304 163.68 161.304ZM173.924 161.424V168H172.832V167.028C172.624 167.364 172.332 167.628 171.956 167.82C171.588 168.004 171.18 168.096 170.732 168.096C170.22 168.096 169.76 167.992 169.352 167.784C168.944 167.568 168.62 167.248 168.38 166.824C168.148 166.4 168.032 165.884 168.032 165.276V161.424H169.112V165.132C169.112 165.78 169.276 166.28 169.604 166.632C169.932 166.976 170.38 167.148 170.948 167.148C171.532 167.148 171.992 166.968 172.328 166.608C172.664 166.248 172.832 165.724 172.832 165.036V161.424H173.924Z" fill="#8E8C99"/>
<path d="M205.808 159.66V160.776H202.268V163.236H205.028V164.352H202.268V168H200.9V159.66H205.808ZM208.444 162.348C208.644 162.012 208.908 161.752 209.236 161.568C209.572 161.376 209.968 161.28 210.424 161.28V162.696H210.076C209.54 162.696 209.132 162.832 208.852 163.104C208.58 163.376 208.444 163.848 208.444 164.52V168H207.076V161.388H208.444V162.348ZM212.377 160.512C212.129 160.512 211.921 160.428 211.753 160.26C211.585 160.092 211.501 159.884 211.501 159.636C211.501 159.388 211.585 159.18 211.753 159.012C211.921 158.844 212.129 158.76 212.377 158.76C212.617 158.76 212.821 158.844 212.989 159.012C213.157 159.18 213.241 159.388 213.241 159.636C213.241 159.884 213.157 160.092 212.989 160.26C212.821 160.428 212.617 160.512 212.377 160.512ZM213.049 161.388V168H211.681V161.388H213.049Z" fill="#070721"/>
<path d="M242.576 168.084C242.024 168.084 241.528 167.988 241.088 167.796C240.656 167.596 240.316 167.324 240.068 166.98C239.82 166.628 239.692 166.224 239.684 165.768H240.848C240.888 166.16 241.048 166.492 241.328 166.764C241.616 167.028 242.032 167.16 242.576 167.16C243.096 167.16 243.504 167.032 243.8 166.776C244.104 166.512 244.256 166.176 244.256 165.768C244.256 165.448 244.168 165.188 243.992 164.988C243.816 164.788 243.596 164.636 243.332 164.532C243.068 164.428 242.712 164.316 242.264 164.196C241.712 164.052 241.268 163.908 240.932 163.764C240.604 163.62 240.32 163.396 240.08 163.092C239.848 162.78 239.732 162.364 239.732 161.844C239.732 161.388 239.848 160.984 240.08 160.632C240.312 160.28 240.636 160.008 241.052 159.816C241.476 159.624 241.96 159.528 242.504 159.528C243.288 159.528 243.928 159.724 244.424 160.116C244.928 160.508 245.212 161.028 245.276 161.676H244.076C244.036 161.356 243.868 161.076 243.572 160.836C243.276 160.588 242.884 160.464 242.396 160.464C241.94 160.464 241.568 160.584 241.28 160.824C240.992 161.056 240.848 161.384 240.848 161.808C240.848 162.112 240.932 162.36 241.1 162.552C241.276 162.744 241.488 162.892 241.736 162.996C241.992 163.092 242.348 163.204 242.804 163.332C243.356 163.484 243.8 163.636 244.136 163.788C244.472 163.932 244.76 164.16 245 164.472C245.24 164.776 245.36 165.192 245.36 165.72C245.36 166.128 245.252 166.512 245.036 166.872C244.82 167.232 244.5 167.524 244.076 167.748C243.652 167.972 243.152 168.084 242.576 168.084ZM246.559 164.688C246.559 164.016 246.695 163.428 246.967 162.924C247.239 162.412 247.611 162.016 248.083 161.736C248.563 161.456 249.095 161.316 249.679 161.316C250.255 161.316 250.755 161.44 251.179 161.688C251.603 161.936 251.919 162.248 252.127 162.624V161.424H253.231V168H252.127V166.776C251.911 167.16 251.587 167.48 251.155 167.736C250.731 167.984 250.235 168.108 249.667 168.108C249.083 168.108 248.555 167.964 248.083 167.676C247.611 167.388 247.239 166.984 246.967 166.464C246.695 165.944 246.559 165.352 246.559 164.688ZM252.127 164.7C252.127 164.204 252.027 163.772 251.827 163.404C251.627 163.036 251.355 162.756 251.011 162.564C250.675 162.364 250.303 162.264 249.895 162.264C249.487 162.264 249.115 162.36 248.779 162.552C248.443 162.744 248.175 163.024 247.975 163.392C247.775 163.76 247.675 164.192 247.675 164.688C247.675 165.192 247.775 165.632 247.975 166.008C248.175 166.376 248.443 166.66 248.779 166.86C249.115 167.052 249.487 167.148 249.895 167.148C250.303 167.148 250.675 167.052 251.011 166.86C251.355 166.66 251.627 166.376 251.827 166.008C252.027 165.632 252.127 165.196 252.127 164.7ZM256.408 162.324V166.2C256.408 166.52 256.476 166.748 256.612 166.884C256.748 167.012 256.984 167.076 257.32 167.076H258.124V168H257.14C256.532 168 256.076 167.86 255.772 167.58C255.468 167.3 255.316 166.84 255.316 166.2V162.324H254.464V161.424H255.316V159.768H256.408V161.424H258.124V162.324H256.408Z" fill="#8E8C99"/>
<path d="M286.576 168.084C286.024 168.084 285.528 167.988 285.088 167.796C284.656 167.596 284.316 167.324 284.068 166.98C283.82 166.628 283.692 166.224 283.684 165.768H284.848C284.888 166.16 285.048 166.492 285.328 166.764C285.616 167.028 286.032 167.16 286.576 167.16C287.096 167.16 287.504 167.032 287.8 166.776C288.104 166.512 288.256 166.176 288.256 165.768C288.256 165.448 288.168 165.188 287.992 164.988C287.816 164.788 287.596 164.636 287.332 164.532C287.068 164.428 286.712 164.316 286.264 164.196C285.712 164.052 285.268 163.908 284.932 163.764C284.604 163.62 284.32 163.396 284.08 163.092C283.848 162.78 283.732 162.364 283.732 161.844C283.732 161.388 283.848 160.984 284.08 160.632C284.312 160.28 284.636 160.008 285.052 159.816C285.476 159.624 285.96 159.528 286.504 159.528C287.288 159.528 287.928 159.724 288.424 160.116C288.928 160.508 289.212 161.028 289.276 161.676H288.076C288.036 161.356 287.868 161.076 287.572 160.836C287.276 160.588 286.884 160.464 286.396 160.464C285.94 160.464 285.568 160.584 285.28 160.824C284.992 161.056 284.848 161.384 284.848 161.808C284.848 162.112 284.932 162.36 285.1 162.552C285.276 162.744 285.488 162.892 285.736 162.996C285.992 163.092 286.348 163.204 286.804 163.332C287.356 163.484 287.8 163.636 288.136 163.788C288.472 163.932 288.76 164.16 289 164.472C289.24 164.776 289.36 165.192 289.36 165.72C289.36 166.128 289.252 166.512 289.036 166.872C288.82 167.232 288.5 167.524 288.076 167.748C287.652 167.972 287.152 168.084 286.576 168.084ZM296.799 161.424V168H295.707V167.028C295.499 167.364 295.207 167.628 294.831 167.82C294.463 168.004 294.055 168.096 293.607 168.096C293.095 168.096 292.635 167.992 292.227 167.784C291.819 167.568 291.495 167.248 291.255 166.824C291.023 166.4 290.907 165.884 290.907 165.276V161.424H291.987V165.132C291.987 165.78 292.151 166.28 292.479 166.632C292.807 166.976 293.255 167.148 293.823 167.148C294.407 167.148 294.867 166.968 295.203 166.608C295.539 166.248 295.707 165.724 295.707 165.036V161.424H296.799ZM301.847 161.304C302.647 161.304 303.295 161.548 303.791 162.036C304.287 162.516 304.535 163.212 304.535 164.124V168H303.455V164.28C303.455 163.624 303.291 163.124 302.963 162.78C302.635 162.428 302.187 162.252 301.619 162.252C301.043 162.252 300.583 162.432 300.239 162.792C299.903 163.152 299.735 163.676 299.735 164.364V168H298.643V161.424H299.735V162.36C299.951 162.024 300.243 161.764 300.611 161.58C300.987 161.396 301.399 161.304 301.847 161.304Z" fill="#8E8C99"/>
<defs>
<filter id="filter0_d_1_334" x="124.5" y="17.5" width="23" height="23" filterUnits="userSpaceOnUse" color-interpolation-filters="sRGB">
<feFlood flood-opacity="0" result="BackgroundImageFix"/>
<feColorMatrix in="SourceAlpha" type="matrix" values="0 0 0 0 0 0 0 0 0 0 0 0 0 0 0 0 0 0 127 0" result="hardAlpha"/>
<feOffset dy="4"/>
<feGaussianBlur stdDeviation="2"/>
<feComposite in2="hardAlpha" operator="out"/>
<feColorMatrix type="matrix" values="0 0 0 0 0 0 0 0 0 0 0 0 0 0 0 0 0 0 0.06 0"/>
<feBlend mode="normal" in2="BackgroundImageFix" result="effect1_dropShadow_1_334"/>
<feBlend mode="normal" in="SourceGraphic" in2="effect1_dropShadow_1_334" result="shape"/>
</filter>
<linearGradient id="paint0_linear_1_334" x1="156" y1="-9.95904" x2="156" y2="131.058" gradientUnits="userSpaceOnUse">
<stop stop-color="#3162FF" stop-opacity="0.14"/>
<stop offset="1" stop-color="#3162FF" stop-opacity="0"/>
</linearGradient>
</defs>
</svg>
